<svg width="32" height="32" viewBox="0 0 32 32" fill="none" xmlns="http://www.w3.org/2000/svg">
<path d="M19.861 29C18.2747 29 16.9888 27.7543 16.9888 26.2176C16.9888 24.6809 18.2747 23.4352 19.861 23.4352C21.4472 23.4352 22.7332 24.6809 22.7332 26.2176C22.7332 27.7543 21.4472 29 19.861 29Z" fill="#121212"/>
<path d="M6.17623 29C4.58996 29 3.30404 27.7543 3.30404 26.2176C3.30404 24.6809 4.58996 23.4352 6.17623 23.4352C7.7625 23.4352 9.04842 24.6809 9.04842 26.2176C9.04842 27.7543 7.7625 29 6.17623 29Z" fill="#121212"/>
<path fill-rule="evenodd" clip-rule="evenodd" d="M31.8899 4.91043C31.8899 4.40761 31.4823 4 30.9795 4H25.5872C24.7249 4.11567 24.2645 4.51407 24.1738 5.17594L23.668 6.97196C23.6454 6.97196 23.6227 6.96875 23.6 6.96554C23.5773 6.96233 23.5546 6.95911 23.5319 6.95911H2.92405C1.31614 6.95911 0 8.23787 0 9.79937L1.97097 19.4511C1.97097 21.0126 3.28713 22.2913 4.89504 22.2913H20.8445C22.4524 22.2913 23.7685 21.0126 23.7685 19.4511L25.7395 9.79937V9.79294L26.3878 6.77918L30.9792 6.78044C31.4821 6.78058 31.8899 6.37293 31.8899 5.87001V4.91043Z" fill="#121212"/>
<path d="M2.47321 10.3677C2.34119 9.79708 2.77452 9.25204 3.36021 9.25204H6.94037C7.38733 9.25204 7.76819 9.5765 7.83923 10.0178L8.30203 12.8927C8.39112 13.4461 7.96372 13.9478 7.40317 13.9478H4.02538C3.60162 13.9478 3.23389 13.6555 3.13837 13.2426L2.47321 10.3677Z" fill="white"/>
<path d="M4.09016 16.4047C3.95813 15.8341 4.39146 15.2891 4.97716 15.2891H7.89942C8.34638 15.2891 8.72724 15.6135 8.79828 16.0548L9.26108 18.9297C9.35017 19.4831 8.92277 19.9848 8.36222 19.9848H5.64232C5.21856 19.9848 4.85084 19.6925 4.75532 19.2796L4.09016 16.4047Z" fill="white"/>
<path d="M23.1821 10.3677C23.3141 9.79708 22.8808 9.25204 22.2951 9.25204H18.7149C18.2679 9.25204 17.8871 9.5765 17.816 10.0178L17.3532 12.8927C17.2642 13.4461 17.6915 13.9478 18.2521 13.9478H21.6299C22.0537 13.9478 22.4214 13.6555 22.5169 13.2426L23.1821 10.3677Z" fill="white"/>
<path d="M21.569 16.4047C21.701 15.8341 21.2677 15.2891 20.682 15.2891H17.7598C17.3128 15.2891 16.9319 15.6135 16.8609 16.0548L16.3981 18.9297C16.309 19.4831 16.7364 19.9848 17.297 19.9848H20.0169C20.4406 19.9848 20.8083 19.6925 20.9039 19.2796L21.569 16.4047Z" fill="white"/>
<path d="M9.89326 10.2887C9.81654 9.74098 10.2418 9.25195 10.7949 9.25195H14.86C15.413 9.25195 15.8383 9.74098 15.7616 10.2887L15.3588 13.1647C15.2958 13.6144 14.9111 13.9489 14.4571 13.9489H11.1977C10.7437 13.9489 10.3591 13.6144 10.2961 13.1647L9.89326 10.2887Z" fill="white"/>
<path d="M10.7478 16.3258C10.6711 15.7781 11.0964 15.2891 11.6494 15.2891H14.0035C14.5566 15.2891 14.9819 15.7781 14.9051 16.3258L14.5024 19.2007C14.4394 19.6503 14.0547 19.9848 13.6007 19.9848H12.0522C11.5982 19.9848 11.2136 19.6503 11.1506 19.2007L10.7478 16.3258Z" fill="white"/>
</svg>
