<svg width="356" height="35" viewBox="0 0 356 35" fill="none" xmlns="http://www.w3.org/2000/svg">
<path d="M17.593 6.91786H23.4053L23.3977 27.4247H17.5854V22.5265H7.69767C1.73683 22.5265 0 18.5348 0 15.6477V6.92928H5.52282L5.51521 14.2537C5.54187 16.459 6.28459 17.2398 8.77938 17.2398L17.5816 17.2246V6.91786H17.593Z" fill="#034576"/>
<path d="M104.001 6.91005H109.802V17.91C109.802 24.1184 108.129 27.912 100.561 27.912C98.455 27.912 95.5145 27.9272 93.4159 27.912C91.4238 27.8968 89.3252 27.912 87.5579 27.912V22.751C93.1188 22.751 95.7164 22.7663 99.1748 22.7663C101.159 22.7663 102.591 22.9681 103.437 22.1111C103.913 21.6274 103.966 20.7438 103.947 20.001L92.7455 19.9553C87.8169 19.9553 85.2764 16.9502 85.2764 12.4786L85.2992 6.92147H91.0277C91.0277 8.86779 91.0239 10.0676 91.0239 12.0139C91.0239 13.705 92.1209 14.5658 93.9948 14.5658H103.997V6.91005H104.001Z" fill="#034576"/>
<path d="M136.913 22.0653V27.5843H122.82C121.308 27.5843 119.8 27.2758 118.455 26.5902C115.065 24.861 113.648 21.9091 113.332 21.1588C112.646 19.5134 112.532 18.0279 112.532 17.1328C112.532 16.2378 112.646 14.7523 113.332 13.1069C114.277 10.8368 116.036 8.90573 118.455 7.67548C119.803 6.98608 121.308 6.67756 122.82 6.67756H136.913V12.1851C132.692 12.1851 128.468 12.1851 124.248 12.1851C123.41 12.1851 121.944 12.2537 120.653 13.2326C119.64 14.002 118.695 15.3846 118.668 17.1214C118.668 17.3766 118.668 19.2848 120.161 20.7208C121.475 21.9815 122.957 22.0843 123.685 22.0767C123.97 22.0767 124.183 22.0805 124.26 22.0805C128.476 22.0767 132.692 22.0691 136.909 22.0653H136.913Z" fill="#034576"/>
<path d="M56.1268 26.9704C56.0049 26.6618 55.8945 26.3647 55.7955 26.0715L55.6698 25.7477C55.6698 25.7477 55.6621 25.7249 55.6583 25.7134L50.3412 11.7121C49.229 8.77932 47.4198 6.84442 43.2529 6.86728C41.9617 6.86728 39.6917 6.86728 38.4005 6.86728C34.2336 6.84442 32.4244 8.77932 31.3122 11.7121L25.9989 25.7134C25.9989 25.7134 25.9912 25.7363 25.9874 25.7477L25.8618 26.0715C25.7627 26.3609 25.6561 26.6618 25.5304 26.9704C25.4694 27.1265 25.4047 27.2751 25.3438 27.4236H31.236L33.1557 22.7882H48.4749L50.3907 27.4236H54.1995C54.9042 27.4236 55.6126 27.4236 56.3173 27.4236C56.2525 27.2751 56.1916 27.1265 56.1306 26.9704H56.1268ZM34.8544 17.6806C35.0258 17.2273 36.2332 13.9593 36.4351 13.4261C36.5151 13.2166 36.7284 12.7938 37.1778 12.4853C37.6082 12.1882 38.0691 12.1349 38.3357 12.1273H43.3291C43.5957 12.1349 44.0566 12.1882 44.487 12.4853C44.9364 12.7938 45.1497 13.2166 45.2297 13.4261C45.4316 13.9593 46.6466 17.2273 46.8142 17.6806H34.8582H34.8544Z" fill="#034576"/>
<path d="M64.0153 6.91384H58.4734V27.4206H64.0153V6.91384Z" fill="#034576"/>
<path d="M75.1638 22.8274H58.4658V6.91786H75.1638C77.2815 6.91786 79.2812 7.69486 80.7933 9.11175C82.3549 10.5743 83.2195 12.5283 83.2157 14.6193V15.1221C83.2157 19.369 79.6011 22.8236 75.16 22.8236L75.1638 22.8274ZM63.802 17.7312H74.7372C76.4093 17.7845 77.7386 16.4057 77.7386 14.7945C77.7386 13.2558 76.4131 12.0027 74.7372 12.0027H63.802V17.7312Z" fill="#034576"/>
<path d="M251.17 27.0758C251.048 26.7673 250.937 26.4702 250.838 26.1769L250.713 25.8532C250.713 25.8532 250.705 25.8303 250.701 25.8189L245.384 11.8176C244.272 8.88479 242.463 6.94989 238.296 6.97275C237.005 6.97275 234.735 6.97275 233.443 6.97275C229.277 6.94989 227.467 8.88479 226.355 11.8176L221.042 25.8189C221.042 25.8189 221.034 25.8418 221.03 25.8532L220.905 26.1769C220.806 26.4664 220.699 26.7673 220.573 27.0758C220.512 27.232 220.448 27.3805 220.387 27.5291H226.279L228.199 22.8937H243.518L245.434 27.5291H249.243C249.947 27.5291 250.656 27.5291 251.36 27.5291C251.295 27.3805 251.235 27.232 251.174 27.0758H251.17ZM229.897 17.7861C230.069 17.3328 231.276 14.0648 231.478 13.5316C231.558 13.3221 231.771 12.8993 232.221 12.5908C232.651 12.2937 233.112 12.2404 233.379 12.2328H238.372C238.639 12.2404 239.1 12.2937 239.53 12.5908C239.979 12.8993 240.193 13.3221 240.273 13.5316C240.475 14.0648 241.69 17.3328 241.857 17.7861H229.901H229.897Z" fill="#034576"/>
<path d="M188.588 27.5028V6.97255H193.798C198.322 12.3168 199.948 15.313 204.473 20.6572H202.623L213.104 6.97255H218.314L218.353 27.5028H212.443L212.404 14.7153H213.532L205.025 24.3314C204.625 24.7843 204.049 25.0437 203.444 25.0437C202.847 25.0437 202.278 24.7909 201.878 24.3478L193.176 14.7153H194.497V27.5028H188.588Z" fill="#034576"/>
<path d="M259.002 7.11708H253.46V27.6239H259.002V7.11708Z" fill="#034576"/>
<path d="M270.15 23.0305H253.452V7.12094H270.15C272.268 7.12094 274.267 7.89795 275.78 9.31483C277.341 10.7774 278.206 12.7314 278.202 14.8224V15.3252C278.202 19.5721 274.587 23.0267 270.146 23.0267L270.15 23.0305ZM258.788 17.9342H269.724C271.396 17.9876 272.725 16.6088 272.725 14.9976C272.725 13.4589 271.399 12.2057 269.724 12.2057H258.788V17.9342Z" fill="#034576"/>
<rect x="312.793" y="7.05848" width="16.4144" height="5.08391" fill="#034576"/>
<rect x="331.242" y="7.05848" width="24.7575" height="5.08391" fill="#034576"/>
<rect x="312.793" y="22.4823" width="16.4144" height="5.08391" fill="#034576"/>
<rect x="312.793" y="14.7714" width="9.60506" height="5.08391" fill="#034576"/>
<rect x="307.245" y="27.5664" width="20.5068" height="5.54867" transform="rotate(-90 307.245 27.5664)" fill="#034576"/>
<rect x="340.848" y="27.5663" width="20.5068" height="5.54867" transform="rotate(-90 340.848 27.5663)" fill="#034576"/>
<path d="M298.019 27.6473L289.5 19.1798L294.619 16.5546L305.21 27.6473H298.019ZM280.237 27.6473V7.11708H286.529V27.6473H280.237ZM284.693 21.4628V16.5214H294.228V21.4628H284.693ZM295.205 19.346L289.382 18.7478L298.254 7.11708H304.937L295.205 19.346Z" fill="#034576"/>
<path fill-rule="evenodd" clip-rule="evenodd" d="M188.643 0.910211C188.643 0.407394 188.235 -0.000221252 187.732 -0.000221252H179.92C178.727 0.159845 178.09 0.711182 177.965 1.62711L177.265 4.11255C177.233 4.11255 177.202 4.1081 177.17 4.10366C177.139 4.09921 177.108 4.09476 177.076 4.09476H148.558C146.333 4.09476 144.511 5.86438 144.511 8.02527L147.239 21.3819C147.239 23.5428 149.06 25.3124 151.286 25.3124H173.357C175.582 25.3124 177.404 23.5428 177.404 21.3819L180.131 8.02527V8.01638L181.028 3.84577L187.732 3.84761C188.235 3.84775 188.643 3.44009 188.643 2.93718V0.910211ZM149.084 30.7457C149.084 32.8723 150.863 34.5962 153.058 34.5962C155.254 34.5962 157.033 32.8723 157.033 30.7457C157.033 28.6192 155.254 26.8952 153.058 26.8952C150.863 26.8952 149.084 28.6192 149.084 30.7457ZM168.022 30.7457C168.022 32.8723 169.801 34.5962 171.996 34.5962C174.191 34.5962 175.971 32.8723 175.971 30.7457C175.971 28.6192 174.191 26.8952 171.996 26.8952C169.801 26.8952 168.022 28.6192 168.022 30.7457ZM147.835 8.38497C147.703 7.81434 148.136 7.26931 148.722 7.26931H154.414C154.861 7.26931 155.242 7.59376 155.313 8.03504L156.066 12.7125C156.155 13.2659 155.727 13.7676 155.167 13.7676H149.804C149.38 13.7676 149.013 13.4752 148.917 13.0624L147.835 8.38497ZM150.959 15.6228C150.374 15.6228 149.94 16.1679 150.072 16.7385L151.155 21.4159C151.25 21.8287 151.618 22.1211 152.042 22.1211H156.494C157.054 22.1211 157.482 21.6194 157.392 21.066L156.639 16.3886C156.568 15.9473 156.188 15.6228 155.741 15.6228H150.959ZM176.691 8.38497C176.823 7.81434 176.39 7.26931 175.804 7.26931H170.112C169.665 7.26931 169.284 7.59376 169.213 8.03504L168.46 12.7125C168.371 13.2659 168.799 13.7676 169.359 13.7676H174.722C175.145 13.7676 175.513 13.4752 175.609 13.0624L176.691 8.38497ZM173.571 15.6228C174.157 15.6228 174.59 16.1679 174.458 16.7385L173.376 21.4159C173.281 21.8287 172.913 22.1211 172.489 22.1211H168.037C167.477 22.1211 167.049 21.6194 167.138 21.066L167.891 16.3886C167.962 15.9473 168.343 15.6228 168.79 15.6228H173.571ZM158.147 8.30603C158.07 7.75834 158.496 7.26931 159.049 7.26931H165.478C166.031 7.26931 166.456 7.75834 166.379 8.30603L165.724 12.9851C165.661 13.4347 165.276 13.7692 164.822 13.7692H159.704C159.25 13.7692 158.865 13.4347 158.802 12.9851L158.147 8.30603ZM160.232 15.6228C159.679 15.6228 159.254 16.1119 159.331 16.6596L159.986 21.337C160.049 21.7866 160.433 22.1211 160.888 22.1211H163.638C164.092 22.1211 164.477 21.7866 164.54 21.337L165.195 16.6596C165.272 16.1119 164.847 15.6228 164.294 15.6228H160.232Z" fill="#034576"/>
</svg>
