<svg width="520" height="67" viewBox="0 0 520 67" fill="none" xmlns="http://www.w3.org/2000/svg">
<path d="M0 33.5C0 14.9985 14.9985 0 33.5 0H510C515.523 0 520 4.47715 520 10V57C520 62.5228 515.523 67 510 67H33.5C14.9985 67 0 52.0015 0 33.5Z" fill="#51789C"/>
<path opacity="0.1" d="M488.202 62.9996C501.002 50.1996 505.002 30.9996 500.202 14.1996C499.402 10.9996 495.402 10.1996 493.802 12.5996L465.802 40.5996L443.402 18.1996L471.402 -9.80039C473.802 -12.2004 473.002 -15.4004 469.802 -16.2004C453.002 -21.8004 433.802 -17.8004 421.002 -4.20039C406.602 10.1996 403.402 32.5996 411.402 50.1996L331.402 121.4C321.802 130.2 321.002 145.4 330.602 154.2C340.202 163.8 354.602 163 363.402 153.4L434.602 73.3996C452.202 81.3996 473.802 78.1996 488.202 62.9996Z" fill="white"/>
<path opacity="0.1" d="M3.96252 -7.98789C-8.83748 4.81211 -12.8375 24.0121 -8.03748 40.8121C-7.23747 44.0121 -3.23749 44.8121 -1.63748 42.4121L26.3625 14.4121L48.7625 36.8121L20.7625 64.8121C18.3625 67.2121 19.1625 70.4121 22.3625 71.2121C39.1625 76.8121 58.3625 72.8121 71.1625 59.2121C85.5625 44.8121 88.7625 22.4121 80.7625 4.81211L160.763 -66.3879C170.363 -75.1879 171.163 -90.3879 161.563 -99.1879C151.963 -108.788 137.563 -107.988 128.763 -98.3879L57.5625 -18.3879C39.9625 -26.3879 18.3625 -23.1879 3.96252 -7.98789Z" fill="white"/>
</svg>
