<svg width="520" height="67" viewBox="0 0 520 67" fill="none" xmlns="http://www.w3.org/2000/svg">
<path d="M0 33.5C0 14.9985 14.9985 0 33.5 0H510C515.523 0 520 4.47715 520 10V57C520 62.5228 515.523 67 510 67H33.5C14.9985 67 0 52.0015 0 33.5Z" fill="#518F9C"/>
<path opacity="0.1" d="M32.4905 18.3136L40.6428 -22.9796L-18.2424 -34.605C-22.1582 -35.378 -25.95 -32.7512 -26.7472 -28.713L-54.5609 112.17C-55.3581 116.208 -52.8492 120.079 -48.9333 120.852L49.9938 140.383C53.9096 141.156 57.7014 138.529 58.4986 134.491L78.16 34.901L38.1181 26.9957C34.2317 26.2284 31.6993 22.3215 32.4905 18.3136ZM80.4439 23.3328L80.0782 25.1849L42.3917 17.7447L50.0644 -21.1195L51.8604 -20.765C53.7448 -20.393 55.3909 -19.2793 56.4461 -17.6514L79.3959 17.7946C80.4511 19.4225 80.8215 21.4199 80.4439 23.3328Z" fill="white"/>
<path opacity="0.1" d="M430.796 50.9105L395.79 -9.06485L310.263 40.8553C304.576 44.175 302.754 51.5644 306.178 57.4296L425.612 262.052C429.035 267.917 436.365 269.965 442.052 266.645L585.737 182.779C591.424 179.459 593.246 172.07 589.822 166.205L505.395 21.5583L447.237 55.504C441.592 58.7988 434.194 56.7317 430.796 50.9105ZM495.588 4.7564L497.158 7.44648L442.421 39.3954L409.474 -17.0521L412.082 -18.5746C414.819 -20.1721 418.071 -20.5922 421.154 -19.7309L488.244 -0.94922C491.327 -0.0879397 493.966 1.97813 495.588 4.7564Z" fill="white"/>
</svg>
