<svg width="520" height="67" viewBox="0 0 520 67" fill="none" xmlns="http://www.w3.org/2000/svg">
<path d="M0 33.5C0 14.9985 14.9985 0 33.5 0H510C515.523 0 520 4.47715 520 10V57C520 62.5228 515.523 67 510 67H33.5C14.9985 67 0 52.0015 0 33.5Z" fill="#5B519C"/>
<g opacity="0.1">
<path d="M461.36 97.8932C472.883 95.6447 484.054 103.16 486.301 114.676C488.55 126.199 481.024 137.362 469.5 139.611C457.973 141.86 446.806 134.344 444.557 122.822C442.31 111.306 449.833 100.142 461.36 97.8932ZM467.262 128.141C472.449 127.129 475.833 122.103 474.821 116.916C473.81 111.735 468.786 108.354 463.599 109.366C458.411 110.378 455.027 115.401 456.038 120.582C457.05 125.769 462.075 129.153 467.262 128.141Z" fill="white"/>
<path d="M338.066 121.952C349.59 119.703 360.757 127.219 363.005 138.735C365.253 150.257 357.73 161.421 346.207 163.669C334.68 165.918 323.513 158.402 321.264 146.88C319.017 135.364 326.54 124.201 338.066 121.952ZM343.969 152.199C349.153 151.188 352.537 146.162 351.525 140.975C350.514 135.794 345.489 132.413 340.305 133.424C335.118 134.437 331.734 139.459 332.744 144.64C333.757 149.827 338.782 153.212 343.969 152.199Z" fill="white"/>
<path d="M406.626 8.026L453.699 -1.15938C455.228 -1.45775 456.819 -1.0634 458.025 -0.0741732L499.609 33.7584C500.565 34.5306 501.217 35.6178 501.453 36.8284L511.986 90.8063C512.542 93.6592 510.679 96.4199 507.827 96.9764L492.006 100.063C484.845 89.9231 472.166 84.3236 459.202 86.8531C446.236 89.3832 436.595 99.3382 433.771 111.427L421.889 113.745L402.464 14.1971C401.909 11.3437 403.775 8.58236 406.626 8.026ZM482.693 41.0402C482.454 39.8176 481.803 38.7138 480.845 37.917L454.165 15.6402C452.908 14.5905 451.247 14.1649 449.644 14.4776L428.568 18.5903C425.628 19.1641 423.707 22.013 424.281 24.9556L430.144 54.9995C430.717 57.9387 433.568 59.857 436.508 59.2832L479.102 50.9719C482.043 50.3979 483.963 47.5492 483.389 44.6096L482.693 41.0402Z" fill="white"/>
<path d="M405.59 101.855C407.196 101.542 408.748 102.589 409.061 104.194L410.761 112.906C411.074 114.509 410.03 116.062 408.423 116.375L368.718 124.123C364.788 118.56 359.209 114.386 352.823 112.151L405.59 101.855Z" fill="white"/>
<path d="M293.58 123.712L320.714 118.417C315.635 122.889 312.033 128.854 310.486 135.486L296.413 138.232C294.807 138.545 293.253 137.5 292.94 135.897L291.24 127.184C290.927 125.579 291.974 124.025 293.58 123.712Z" fill="white"/>
<path d="M378.623 -16.8813L273.195 3.69098C269.772 4.35886 267.539 7.67242 268.207 11.0935L287.19 108.379C287.858 111.8 291.173 114.031 294.596 113.363L400.024 92.7907C403.444 92.1234 405.677 88.8098 405.009 85.3888L386.026 -11.8968C385.358 -15.3178 382.043 -17.5486 378.623 -16.8813Z" fill="white"/>
</g>
<g opacity="0.1">
<path d="M37.1484 34.1096C44.6096 36.1088 49.0422 43.778 47.0443 51.2346C45.0452 58.6951 37.3718 63.1205 29.9106 61.1213C22.4471 59.1214 18.0164 51.4528 20.0155 43.9923C22.0137 36.5358 29.6852 32.1098 37.1484 34.1096ZM31.9005 53.6947C35.2592 54.5946 38.7112 52.6014 39.6111 49.2429C40.5099 45.8883 38.5165 42.4381 35.1579 41.5381C31.7993 40.6382 28.3478 42.6295 27.4489 45.9841C26.5493 49.3426 28.5422 52.7948 31.9005 53.6947Z" fill="white"/>
<path d="M-42.6828 12.7189C-35.2215 14.7181 -30.7908 22.3868 -32.7888 29.8434C-34.7879 37.3039 -42.4593 41.7298 -49.9205 39.7306C-57.3837 37.7308 -61.8141 30.0622 -59.8151 22.6017C-57.8171 15.1451 -50.146 10.7191 -42.6828 12.7189ZM-47.9306 32.304C-44.5739 33.2034 -41.1219 31.2102 -40.222 27.8517C-39.3231 24.4971 -41.3166 21.0469 -44.6732 20.1474C-48.0316 19.2476 -51.4831 21.2389 -52.3819 24.5935C-53.2818 27.9519 -51.2889 31.4041 -47.9306 32.304Z" fill="white"/>
<path d="M30.7512 -34.8226L61.2304 -26.6557C62.2204 -26.3905 63.0469 -25.6979 63.4742 -24.7647L78.2834 7.24585C78.6253 7.97834 78.6965 8.80924 78.4865 9.59307L69.1216 44.5432C68.6267 46.3904 66.7277 47.4841 64.8813 46.9893L54.6376 44.2445C53.3335 36.1819 47.4554 29.2094 39.0619 26.9604C30.6665 24.7108 22.092 27.8107 16.931 34.1411L9.23759 32.0796L26.5086 -32.3768C27.0042 -34.2241 28.9051 -35.3173 30.7512 -34.8226ZM66.1802 6.66401C66.3923 5.87239 66.3261 5.03181 65.9903 4.28427L56.6534 -16.5905C56.2136 -17.574 55.3547 -18.3054 54.3168 -18.5835L40.6702 -22.2401C38.7663 -22.7503 36.808 -21.6209 36.2975 -19.7157L31.0851 -0.262546C30.5751 1.6405 31.706 3.59784 33.6103 4.10808L61.189 11.4978C63.0935 12.0081 65.0512 10.8786 65.5612 8.9753L66.1802 6.66401Z" fill="white"/>
<path d="M3.037 20.3429C4.07711 20.6216 4.69172 21.6887 4.41328 22.7278L2.90168 28.3692C2.6236 29.407 1.55796 30.0232 0.517848 29.7445L-25.1906 22.856C-25.9071 18.4324 -27.9997 14.3534 -31.1289 11.1882L3.037 20.3429Z" fill="white"/>
<path d="M-69.4879 0.90993L-51.9191 5.61747C-56.2134 6.79388 -60.0653 9.27976 -62.8956 12.7529L-72.0073 10.3115C-73.0474 10.0328 -73.6641 8.96575 -73.386 7.92795L-71.8744 2.28661C-71.5957 1.2475 -70.528 0.631235 -69.4879 0.90993Z" fill="white"/>
<path d="M21.3923 -57.6344L-46.8713 -75.9255C-49.0875 -76.5193 -51.3648 -75.2057 -51.9583 -72.9906L-68.8368 -9.99938C-69.4303 -7.78429 -68.1149 -5.508 -65.8987 -4.91417L2.36487 13.377C4.57911 13.9703 6.85642 12.6567 7.44995 10.4416L24.3284 -52.5497C24.9219 -54.7648 23.6065 -57.041 21.3923 -57.6344Z" fill="white"/>
</g>
</svg>
