<svg width="143" height="39" viewBox="0 0 143 39" fill="none" xmlns="http://www.w3.org/2000/svg">
<g clip-path="url(#clip0_116_6742)">
<path fill-rule="evenodd" clip-rule="evenodd" d="M83.7144 28.957C84.1765 29.7464 84.6976 30.4965 85.2742 31.1981C88.7147 35.3858 94.05 37.9367 99.9206 37.9367C103.327 37.9367 106.488 36.9094 109.211 35.2186C107.964 34.145 106.831 32.9113 105.846 31.5268C103.954 32.5393 101.778 33.2374 99.5185 33.2374C95.7814 33.2374 92.2138 31.5401 89.7307 28.9535C89.3837 28.5912 89.0588 28.2141 88.7571 27.8202C86.9304 25.4359 86.092 22.4279 86.092 19.1453C86.092 14.4582 88.182 10.2349 91.5938 7.70488C93.7928 6.07273 96.6208 5.19015 99.5301 5.19015C101.947 5.19015 104.001 5.91221 105.889 7.09238C106.871 5.68851 108.029 4.38452 109.355 3.2176C106.583 1.615 103.359 0.697266 99.9201 0.697266C95.5059 0.697266 91.4611 1.85807 88.2562 4.38911C83.9369 7.80017 81.1562 13.4136 81.1562 19.317C81.1562 22.8009 82.0628 26.135 83.7139 28.9535" fill="white"/>
<path fill-rule="evenodd" clip-rule="evenodd" d="M26.4062 37.4986H49.1488V33.2972H30.7508V19.5699H49.334V15.5539H30.8441V5.26112H49.334V0.986328H26.4062V37.4986Z" fill="white"/>
<path fill-rule="evenodd" clip-rule="evenodd" d="M9.39578 17.2356L22.8934 1.02515H17.6762L4.17803 16.8071V1.02515H0V37.5379H4.21839V18.5427L12.0725 28.9532L18.5489 37.5379H24.0951L17.88 28.9532L9.39578 17.2356Z" fill="white"/>
<path fill-rule="evenodd" clip-rule="evenodd" d="M140.493 9.32611C135.258 0.276648 123.4 -2.65593 114.135 2.61099C104.836 7.89626 101.599 19.6164 106.834 28.6653C106.89 28.7622 106.946 28.8585 107.004 28.9538C112.326 37.7765 124.171 40.5613 133.189 35.4885C136.091 33.8548 138.402 31.5811 140.051 28.9497C143.696 23.1289 144.099 15.5592 140.493 9.32611ZM135.832 26.4879C135.314 27.394 134.719 28.2179 134.061 28.9538C129.575 33.9893 122.175 35.0559 116.371 31.6703C115.098 30.9278 113.989 30.0086 113.054 28.9558C109.101 24.5037 108.271 17.677 111.421 11.8679C115.267 4.77361 124.161 2.51774 130.876 6.29621C137.747 10.1633 139.885 19.3968 135.832 26.4879Z" fill="white"/>
<path fill-rule="evenodd" clip-rule="evenodd" d="M78.3793 28.9727C77.5762 32.7848 74.8334 35.8509 71.2768 37.0744C69.3735 37.7282 67.3349 38.0828 65.2151 38.0828C63.2209 38.0828 61.3034 37.7215 59.5116 37.1386C55.8668 35.9533 53.0644 32.8429 52.2542 28.9773V28.9722C52.0979 28.2323 52.0156 27.4593 52.0156 26.6674V1.05588L56.6336 1.05333V26.2022C56.6336 27.1841 56.8278 28.1222 57.1779 28.9732C57.9694 30.9009 59.561 32.4001 61.5274 33.0391C62.6968 33.4177 63.9489 33.6541 65.2509 33.6541C66.6342 33.6541 67.9645 33.4228 69.2075 32.9963C71.1184 32.3394 72.6712 30.8642 73.4516 28.9758V28.9997C73.8053 28.1477 74.0015 27.2081 74.0015 26.221V1.03906L78.6194 1.0411V26.6812C78.6194 27.4761 78.5367 28.2522 78.3788 28.9992L78.3793 28.9727Z" fill="white"/>
</g>
<defs>
<clipPath id="clip0_116_6742">
<rect width="143" height="39" fill="white"/>
</clipPath>
</defs>
</svg>
