<svg width="184" height="26" viewBox="0 0 184 26" fill="none" xmlns="http://www.w3.org/2000/svg">
<path fill-rule="evenodd" clip-rule="evenodd" d="M55.2252 24.8474C51.1114 26 47.9947 26 45.7507 26C39.2686 26 31.6643 22.6701 31.6643 13.1923C31.6643 3.7142 38.1468 0 47.122 0C48.7427 0 52.2332 0.128012 54.602 1.1531V6.66038C52.6074 5.50729 49.6154 4.99529 48.1194 4.99529C42.7592 4.99529 38.3959 7.30039 38.3959 13.1923C38.3959 18.0592 41.8864 21.1331 46.6235 21.1331C47.4962 21.1331 48.3689 20.8768 48.9918 20.6209V15.626H45.1279V10.8868H55.2252V24.8474Z" fill="white"/>
<path fill-rule="evenodd" clip-rule="evenodd" d="M60.8359 0.386278H78.0395V5.25248H67.3185V10.3759H77.4162V15.1145H67.3185V20.878H78.4133V25.6172H60.8359V0.386278Z" fill="white"/>
<path fill-rule="evenodd" clip-rule="evenodd" d="M89.881 14.9844H91.8755C94.1194 14.9844 96.7377 15.2408 96.7377 17.9307C96.7377 20.4921 94.2442 20.8761 91.8755 20.8761H89.881V14.9844ZM83.3984 25.6152H93.7452C98.1082 25.6152 103.219 24.3341 103.219 18.3147C103.219 15.2408 101.599 13.4479 98.2328 12.8071V12.6789C100.976 11.7827 102.596 9.98938 102.596 6.78763C102.596 2.56143 99.2305 0.384325 94.618 0.384325H83.3984V25.6152ZM89.881 5.25053H91.7507C93.9947 5.25053 96.1138 5.37853 96.1138 7.68363C96.1138 9.86127 93.8699 10.3739 91.7507 10.3739H89.881V5.25053Z" fill="white"/>
<path fill-rule="evenodd" clip-rule="evenodd" d="M107.957 0.384325H125.284V5.25053H114.563V10.3739H124.661V15.1126H114.563V20.8761H125.659V25.6152H107.957V0.384325Z" fill="white"/>
<path fill-rule="evenodd" clip-rule="evenodd" d="M137.126 5.25053H138.746C141.24 5.25053 143.608 5.63453 143.608 7.94071C143.608 10.886 140.865 10.886 138.746 10.886H137.126V5.25053ZM130.52 25.6152H137.126V15.6252H138.497C140.865 15.6252 141.739 16.7778 142.986 21.1324L144.481 25.6152H151.213L148.844 18.827C147.597 15.7533 147.473 13.8319 145.354 13.1916C148.595 12.423 150.091 10.1176 150.091 6.78763C150.091 2.43343 146.601 0.384325 142.237 0.384325H130.52V25.6152Z" fill="white"/>
<path fill-rule="evenodd" clip-rule="evenodd" d="M155.328 0.384325H161.934V25.6152H155.328V0.384325Z" fill="white"/>
<path fill-rule="evenodd" clip-rule="evenodd" d="M171.535 5.37852H165.426V0.384325H184.001V5.37852H178.016V25.6152H171.535V5.37852Z" fill="white"/>
<path fill-rule="evenodd" clip-rule="evenodd" d="M0 0.384325H24.5584V25.6152H0V0.384325Z" fill="white"/>
</svg>
