<svg width="226" height="29" viewBox="0 0 226 29" fill="none" xmlns="http://www.w3.org/2000/svg">
<path d="M33.5564 21.1792V28.7754H14.1596C12.0784 28.7754 10.0024 28.3507 8.15187 27.4071C3.48617 25.0271 1.53603 20.9642 1.10092 19.9315C0.15729 17.6668 0 15.6223 0 14.3903C0 13.1583 0.15729 11.1138 1.10092 8.84912C2.40102 5.72466 4.82297 3.06678 8.15187 1.3735C10.0077 0.424632 12.0837 0 14.1649 0H33.5616V7.58046C27.7531 7.58046 21.9393 7.58046 16.1308 7.58046C14.9775 7.58046 12.9591 7.67483 11.182 9.02211C9.78751 10.0811 8.48739 11.9841 8.45069 14.3746C8.45069 14.7258 8.45072 17.3522 10.5057 19.3286C12.3143 21.0638 14.3536 21.2054 15.3549 21.1949C15.7481 21.1949 16.0416 21.2001 16.1465 21.2001C21.9498 21.1949 27.7531 21.1844 33.5564 21.1792Z" fill="white"/>
<path d="M61.9851 0.246094H70.5302V28.5654H61.9851V17.9443H45.7443V28.5549H37.1992V0.261821H45.7443V10.8671H61.9851V0.246094Z" fill="white"/>
<path d="M145.997 20.905C149.446 19.0964 151.795 15.5893 151.795 11.5736V10.8764C151.795 7.98784 150.605 5.28802 148.445 3.26971C146.353 1.3143 143.596 0.239617 140.671 0.239617H125.274L117.62 0.234375L117.609 0.239617V22.2051H117.62V28.5536H125.274V22.2051H136.781L143.003 28.5956H152.99L146.002 20.8998L145.997 20.905ZM144.424 11.5736C144.424 13.377 142.741 14.8396 140.671 14.8396H125.274V7.61039H140.671C141.719 7.61039 142.694 7.98259 143.418 8.65362C144.068 9.26173 144.429 10.0533 144.429 10.8764V11.5736H144.424Z" fill="white"/>
<path d="M179.075 0.324219H186.986V16.1929C186.986 23.1338 181.34 28.785 174.394 28.785H167.616C160.675 28.785 155.023 23.139 155.023 16.1929V0.324219H162.934V15.9674C162.934 19.5113 165.388 20.9791 167.946 20.9791H174.069C176.91 20.9791 179.081 19.5637 179.081 15.9674V0.324219H179.075Z" fill="white"/>
<path d="M225.049 19.7271C225.049 24.5816 221.112 28.5186 216.257 28.5186H191.073V21.6458H214.989C216.048 21.6458 216.907 20.7861 216.907 19.7271C216.907 18.6682 216.048 17.8084 214.989 17.8084H199.057C194.203 17.8084 190.266 13.8714 190.266 9.01698V8.97504C190.266 4.12061 194.203 0.183594 199.057 0.183594H224.252V7.38661L200.373 7.19264C199.33 7.19264 198.48 8.02618 198.454 9.06416C198.48 10.1022 199.33 10.9357 200.373 10.9357H216.263C221.117 10.9357 225.054 14.8727 225.054 19.7271H225.049Z" fill="white"/>
<path d="M115.065 27.9421C114.897 27.5175 114.745 27.1033 114.608 26.6997L114.435 26.2488C114.435 26.2488 114.425 26.2174 114.42 26.2016L107.059 6.81011C105.518 2.74728 103.018 0.0736716 97.2405 0.0998834C95.4528 0.0998834 92.3074 0.0998834 90.5198 0.0998834C84.7479 0.0684292 82.2421 2.74728 80.7008 6.81011L73.3405 26.2016C73.3405 26.2016 73.33 26.2331 73.3248 26.2488L73.1518 26.6997C73.0155 27.1033 72.8635 27.5175 72.6957 27.9421C72.6118 28.157 72.5227 28.3667 72.4336 28.5712H80.5907L83.2486 22.1545H104.464L107.117 28.5712H112.391C113.366 28.5712 114.346 28.5712 115.321 28.5712C115.232 28.3667 115.148 28.157 115.059 27.9421H115.065ZM85.6077 15.0773C85.8436 14.4535 87.5159 9.92408 87.7938 9.18491C87.9038 8.89133 88.1974 8.30943 88.8212 7.87956C89.4189 7.47065 90.0584 7.39726 90.4254 7.38153H97.3348C97.7018 7.39202 98.3414 7.46541 98.939 7.87956C99.5629 8.30943 99.8564 8.89133 99.9665 9.18491C100.244 9.92408 101.927 14.4482 102.163 15.0721H85.6077V15.0773Z" fill="white"/>
</svg>
